<?xml version="1.0" encoding="UTF-8"?>
<svg xmlns="http://www.w3.org/2000/svg" width="344" height="194" viewBox="0 0 344 194" fill="none">
  <rect width="344" height="194" rx="8" fill="#254053"></rect>
  <g clip-path="url(#clip0_6_206)">
    <path d="M251.233 113.808L248.024 74.8206C248.382 74.6788 248.64 74.3201 248.64 73.9114C248.64 73.3692 248.199 72.9272 247.657 72.9272C247.598 72.9272 247.548 72.9272 247.49 72.9438L236.794 52.0073C236.978 51.8321 237.086 51.5819 237.086 51.3066C237.086 50.7644 236.644 50.3224 236.103 50.3224C235.952 50.3224 235.811 50.3557 235.686 50.4141L219.572 32.7974C219.655 32.6556 219.705 32.4888 219.705 32.3052C219.705 31.7631 219.263 31.321 218.721 31.321C218.463 31.321 218.229 31.4211 218.054 31.5796L196.488 19.1928C196.505 19.1261 196.513 19.051 196.513 18.9759C196.513 18.4337 196.071 17.9917 195.529 17.9917C194.988 17.9917 194.546 18.4337 194.546 18.9759C194.546 19.0593 194.562 19.1428 194.579 19.2262L177.223 30.1032C177.056 29.9614 176.831 29.8696 176.598 29.8696C176.056 29.8696 175.614 30.3117 175.614 30.8539C175.614 31.296 175.906 31.663 176.306 31.7881V72.7687C175.906 72.8938 175.614 73.2608 175.614 73.7029C175.614 74.145 175.906 74.512 176.306 74.6371V122.474C175.906 122.599 175.614 122.966 175.614 123.408C175.614 123.85 175.906 124.218 176.306 124.343V162.496C175.906 162.621 175.614 162.988 175.614 163.43C175.614 163.972 176.056 164.414 176.598 164.414C176.881 164.414 177.131 164.297 177.306 164.105L199.139 174.882C199.139 174.932 199.122 174.982 199.122 175.032C199.122 175.575 199.564 176.017 200.106 176.017C200.648 176.017 201.09 175.575 201.09 175.032C201.09 174.982 201.09 174.941 201.073 174.891L221.064 165.315C221.239 165.507 221.497 165.632 221.781 165.632C222.323 165.632 222.764 165.19 222.764 164.648C222.764 164.472 222.714 164.306 222.631 164.164L240.046 145.288C240.171 145.346 240.312 145.388 240.462 145.388C241.004 145.388 241.446 144.946 241.446 144.403C241.446 144.086 241.288 143.803 241.054 143.619L250.975 115.751C250.975 115.751 251 115.751 251.016 115.751C251.558 115.751 252 115.309 252 114.767C252 114.3 251.675 113.908 251.233 113.808ZM225.382 117.436C225.332 117.328 225.265 117.228 225.182 117.144L234.035 100.353C234.11 100.37 234.185 100.387 234.269 100.387C234.444 100.387 234.61 100.337 234.752 100.253L250.133 114.341C250.099 114.417 250.066 114.492 250.058 114.575L225.382 117.436ZM221.781 163.647C221.597 163.647 221.439 163.697 221.289 163.78L200.99 145.254C201.006 145.212 201.023 145.171 201.04 145.121L239.537 144.679C239.562 144.745 239.587 144.804 239.621 144.862L222.197 163.738C222.072 163.68 221.931 163.638 221.781 163.638V163.647ZM177.156 162.596C177.081 162.546 176.989 162.504 176.898 162.47V124.318C176.964 124.293 177.031 124.268 177.098 124.234L199.231 144.437C199.172 144.562 199.139 144.704 199.139 144.854C199.139 144.979 199.164 145.096 199.206 145.204L177.164 162.604L177.156 162.596ZM246.815 74.3952C246.856 74.4619 246.906 74.5287 246.965 74.5871L234.394 98.4264C234.394 98.4264 234.31 98.418 234.269 98.418C234.085 98.418 233.918 98.4681 233.777 98.5598L215.653 81.9607C215.703 81.8523 215.728 81.7439 215.745 81.6187L246.831 74.4036L246.815 74.3952ZM250.524 113.908L235.144 99.8193C235.202 99.6942 235.244 99.5524 235.244 99.4023C235.244 99.1103 235.119 98.8601 234.919 98.6766L247.448 74.9291L250.65 113.849C250.65 113.849 250.566 113.891 250.533 113.908H250.524ZM224.657 116.869C224.615 116.869 224.565 116.861 224.515 116.852L215.295 82.4278L233.368 98.9852C233.31 99.1103 233.277 99.2521 233.277 99.3939C233.277 99.6442 233.377 99.8694 233.527 100.045L224.657 116.861V116.869ZM200.506 143.953C200.381 143.895 200.239 143.861 200.098 143.861C199.914 143.861 199.748 143.911 199.606 143.995L177.473 123.8C177.506 123.725 177.531 123.65 177.548 123.567L223.573 118.22C223.573 118.22 223.606 118.287 223.631 118.32L200.506 143.945V143.953ZM197.739 54.6098C197.88 54.6932 198.047 54.7432 198.23 54.7432C198.305 54.7432 198.38 54.7349 198.455 54.7182L214.028 80.8931C213.978 80.9514 213.936 81.0098 213.903 81.0682L177.565 73.5861C177.556 73.4693 177.523 73.3692 177.481 73.2691L197.747 54.6098H197.739ZM202.098 96.8082C202.157 96.683 202.199 96.5412 202.199 96.3911C202.199 96.2076 202.149 96.0408 202.065 95.899L214.345 82.4362C214.461 82.4862 214.586 82.5196 214.72 82.5279L223.94 116.944L202.107 96.8165L202.098 96.8082ZM213.778 81.6438C213.794 81.7856 213.836 81.919 213.903 82.0358L201.623 95.4986C201.498 95.4402 201.357 95.4068 201.206 95.4068C201.031 95.4068 200.865 95.4569 200.715 95.5403L177.548 74.1867L213.769 81.6438H213.778ZM200.798 97.2753C200.923 97.3337 201.065 97.367 201.215 97.367C201.39 97.367 201.557 97.317 201.698 97.2336L223.59 117.411C223.556 117.486 223.531 117.561 223.515 117.645L177.49 122.991C177.49 122.991 177.456 122.925 177.439 122.9L200.806 97.2753H200.798ZM215.045 80.6178C214.953 80.5844 214.853 80.5677 214.745 80.5677C214.67 80.5677 214.595 80.5761 214.52 80.5928L198.947 54.4179C199.056 54.3011 199.131 54.1593 199.172 54.0008L235.177 51.657C235.211 51.7487 235.261 51.8238 235.311 51.8988L215.045 80.6178ZM235.144 51.0731L199.139 53.417C199.122 53.3753 199.106 53.3335 199.081 53.3002L218.288 33.1978C218.421 33.2645 218.563 33.3062 218.721 33.3062C218.88 33.3062 219.013 33.2728 219.138 33.2144L235.252 50.8312C235.202 50.9146 235.169 50.998 235.144 51.0897V51.0731ZM217.863 32.789L198.656 52.8915C198.589 52.8581 198.514 52.8331 198.439 52.8164L195.871 19.8851C195.98 19.8434 196.088 19.7767 196.171 19.6933L217.754 32.1051C217.738 32.1718 217.729 32.2469 217.729 32.3219C217.729 32.4971 217.779 32.6556 217.854 32.7974L217.863 32.789ZM195.296 19.9268L197.864 52.8581C197.864 52.8581 197.822 52.8748 197.797 52.8915L177.439 31.321C177.515 31.1792 177.565 31.0207 177.565 30.8455C177.565 30.7538 177.548 30.6704 177.523 30.587L194.871 19.71C194.988 19.8101 195.129 19.8851 195.288 19.9185L195.296 19.9268ZM177.023 31.7214L197.372 53.2918C197.288 53.4336 197.247 53.5921 197.247 53.7673C197.247 53.9174 197.28 54.0592 197.347 54.1844L177.081 72.8437C177.023 72.8104 176.956 72.777 176.881 72.7603V31.7881C176.931 31.7714 176.981 31.7547 177.023 31.7297V31.7214ZM177.073 74.537L200.323 95.974C200.264 96.0992 200.231 96.241 200.231 96.3911C200.231 96.5746 200.281 96.7414 200.365 96.8832L176.998 122.508C176.998 122.508 176.914 122.474 176.873 122.458V74.6204C176.939 74.5954 177.006 74.5704 177.064 74.537H177.073ZM239.52 144.103L201.023 144.545C200.998 144.478 200.973 144.412 200.94 144.353L224.065 118.729C224.19 118.787 224.323 118.821 224.473 118.821C224.557 118.821 224.632 118.812 224.707 118.787L239.729 143.736C239.637 143.836 239.57 143.961 239.52 144.103ZM246.957 73.2108C246.79 73.3692 246.69 73.5945 246.673 73.8363L215.595 81.0515C215.595 81.0515 215.553 80.9848 215.528 80.9514L235.794 52.2325C235.886 52.2659 235.986 52.2825 236.094 52.2825C236.153 52.2825 236.203 52.2825 236.261 52.2659L246.957 73.2024V73.2108ZM177.556 163.563C177.556 163.513 177.573 163.463 177.573 163.413C177.573 163.288 177.548 163.171 177.506 163.063L199.548 145.663C199.631 145.721 199.714 145.755 199.806 145.788V174.09C199.648 174.14 199.506 174.223 199.389 174.348L177.556 163.563ZM200.815 174.357C200.698 174.232 200.556 174.14 200.39 174.09V145.788C200.456 145.763 200.523 145.738 200.59 145.696L220.889 164.222C220.83 164.347 220.797 164.489 220.797 164.639C220.797 164.689 220.797 164.731 220.814 164.781L200.823 174.357H200.815ZM240.496 143.419C240.496 143.419 240.471 143.419 240.462 143.419C240.379 143.419 240.304 143.427 240.237 143.452L225.215 118.504C225.332 118.37 225.415 118.212 225.449 118.037L250.116 115.176C250.183 115.334 250.291 115.459 250.424 115.568L240.504 143.436L240.496 143.419Z" fill="white"></path>
    <path d="M168.378 30.8538C168.378 30.3116 167.936 29.8695 167.394 29.8695C167.152 29.8695 166.936 29.9613 166.769 30.1031L149.413 19.2261C149.429 19.1427 149.446 19.0676 149.446 18.9759C149.446 18.4337 149.004 17.9916 148.462 17.9916C147.92 17.9916 147.479 18.4337 147.479 18.9759C147.479 19.0509 147.487 19.1177 147.504 19.1844L125.921 31.5962C125.746 31.4377 125.512 31.3376 125.254 31.3376C124.712 31.3376 124.27 31.7797 124.27 32.3219C124.27 32.497 124.32 32.6638 124.403 32.814L108.289 50.4307C108.164 50.3723 108.023 50.339 107.872 50.339C107.331 50.339 106.889 50.781 106.889 51.3232C106.889 51.5985 107.005 51.8487 107.181 52.0239L96.485 72.9604C96.4266 72.9521 96.3766 72.9438 96.3182 72.9438C95.7764 72.9438 95.3345 73.3858 95.3345 73.928C95.3345 74.3367 95.5846 74.6871 95.9514 74.8372L92.7669 113.808C92.3251 113.908 92 114.291 92 114.767C92 115.309 92.4418 115.751 92.9837 115.751C93.0004 115.751 93.0087 115.751 93.0254 115.751L102.946 143.619C102.704 143.794 102.554 144.078 102.554 144.403C102.554 144.945 102.996 145.388 103.538 145.388C103.688 145.388 103.829 145.354 103.954 145.287L121.369 164.164C121.286 164.305 121.236 164.472 121.236 164.647C121.236 165.19 121.677 165.632 122.219 165.632C122.503 165.632 122.753 165.507 122.936 165.315L142.927 174.891C142.927 174.932 142.91 174.982 142.91 175.032C142.91 175.575 143.352 176.017 143.894 176.017C144.436 176.017 144.878 175.575 144.878 175.032C144.878 174.982 144.878 174.932 144.861 174.882L166.694 164.105C166.869 164.297 167.119 164.414 167.402 164.414C167.944 164.414 168.386 163.972 168.386 163.43C168.386 162.988 168.094 162.621 167.694 162.495V124.343C168.094 124.217 168.386 123.85 168.386 123.408C168.386 122.966 168.094 122.599 167.694 122.474V74.637C168.094 74.5119 168.386 74.1449 168.386 73.7028C168.386 73.2607 168.094 72.8937 167.694 72.7686V31.788C168.094 31.6629 168.386 31.2959 168.386 30.8538H168.378ZM166.844 162.604L144.803 145.204C144.844 145.096 144.869 144.979 144.869 144.854C144.869 144.704 144.836 144.57 144.778 144.437L166.911 124.234C166.969 124.267 167.036 124.301 167.111 124.318V162.47C167.019 162.504 166.927 162.537 166.852 162.596L166.844 162.604ZM122.711 163.788C122.569 163.705 122.403 163.655 122.219 163.655C122.069 163.655 121.928 163.688 121.803 163.755L104.38 144.879C104.413 144.82 104.438 144.762 104.463 144.695L142.96 145.137C142.977 145.179 142.985 145.229 143.01 145.271L122.711 163.797V163.788ZM93.9424 114.575C93.9257 114.492 93.9007 114.416 93.8673 114.341L109.248 100.253C109.39 100.336 109.556 100.386 109.731 100.386C109.815 100.386 109.89 100.378 109.965 100.353L118.818 117.144C118.735 117.227 118.668 117.328 118.618 117.436L93.9424 114.575ZM128.263 81.627C128.272 81.7521 128.305 81.8606 128.347 81.969L110.223 98.5681C110.082 98.4847 109.915 98.4263 109.731 98.4263C109.69 98.4263 109.648 98.4263 109.606 98.4346L97.0352 74.5953C97.0935 74.5369 97.1435 74.4702 97.1852 74.4035L128.272 81.6187L128.263 81.627ZM166.536 31.3209L146.178 52.8914C146.178 52.8914 146.136 52.8664 146.111 52.858L148.671 19.9268C148.829 19.8934 148.971 19.8183 149.087 19.7182L166.435 30.5952C166.41 30.6786 166.394 30.762 166.394 30.8538C166.394 31.029 166.444 31.1874 166.519 31.3292L166.536 31.3209ZM144.377 144.003C144.236 143.919 144.069 143.869 143.886 143.869C143.736 143.869 143.602 143.903 143.477 143.961L120.352 118.337C120.352 118.337 120.394 118.27 120.402 118.237L166.427 123.583C166.444 123.667 166.469 123.742 166.502 123.817L144.369 144.011L144.377 144.003ZM110.457 100.053C110.607 99.8777 110.707 99.6524 110.707 99.4022C110.707 99.2521 110.673 99.1186 110.615 98.9935L128.688 82.4361L119.468 116.86C119.418 116.86 119.377 116.86 119.327 116.877L110.457 100.061V100.053ZM141.885 96.8081L120.052 116.936L129.272 82.5195C129.405 82.5195 129.53 82.4861 129.647 82.4278L141.927 95.8905C141.843 96.0323 141.793 96.1992 141.793 96.3827C141.793 96.5328 141.826 96.6746 141.893 96.7997L141.885 96.8081ZM166.494 122.991L120.469 117.645C120.452 117.561 120.427 117.486 120.394 117.411L142.285 97.2335C142.427 97.3169 142.593 97.3669 142.769 97.3669C142.919 97.3669 143.052 97.3336 143.185 97.2752L166.552 122.9C166.552 122.9 166.519 122.958 166.502 122.991H166.494ZM143.252 95.5402C143.11 95.4568 142.944 95.4068 142.76 95.4068C142.61 95.4068 142.477 95.4401 142.343 95.4985L130.064 82.0357C130.131 81.9189 130.181 81.7855 130.189 81.6437L166.41 74.1866L143.244 95.5402H143.252ZM166.419 73.586L130.081 81.0681C130.047 81.0014 130.006 80.943 129.956 80.893L145.528 54.7181C145.603 54.7348 145.678 54.7431 145.753 54.7431C145.928 54.7431 146.095 54.6931 146.245 54.6097L166.51 73.2691C166.46 73.3692 166.435 73.4776 166.427 73.586H166.419ZM148.104 19.8934L145.545 52.8247C145.469 52.8413 145.394 52.8664 145.328 52.8997L126.121 32.7973C126.196 32.6555 126.246 32.497 126.246 32.3219C126.246 32.2468 126.237 32.1801 126.221 32.105L147.804 19.6932C147.887 19.7766 147.995 19.8433 148.104 19.885V19.8934ZM125.27 33.3061C125.429 33.3061 125.571 33.2644 125.704 33.1977L144.911 53.3001C144.911 53.3001 144.869 53.3752 144.853 53.4169L108.848 51.073C108.823 50.9812 108.789 50.8978 108.739 50.8144L124.854 33.1977C124.979 33.2561 125.12 33.2894 125.27 33.2894V33.3061ZM108.806 51.6652L144.811 54.0091C144.853 54.1676 144.928 54.3094 145.036 54.4345L129.464 80.6094C129.389 80.5927 129.314 80.5843 129.239 80.5843C129.13 80.5843 129.039 80.6094 128.938 80.6344L108.673 51.9155C108.731 51.8404 108.773 51.7653 108.806 51.6736V51.6652ZM109.081 98.6849C108.881 98.8684 108.756 99.1186 108.756 99.4105C108.756 99.5607 108.789 99.7025 108.856 99.8276L93.4672 113.916C93.4672 113.916 93.3922 113.874 93.3505 113.858L96.5517 74.9373L109.081 98.6849ZM119.285 118.787C119.36 118.804 119.435 118.821 119.518 118.821C119.668 118.821 119.802 118.787 119.927 118.729L143.052 144.353C143.019 144.412 142.985 144.478 142.969 144.545L104.471 144.103C104.43 143.97 104.363 143.844 104.271 143.736L119.293 118.787H119.285ZM166.986 122.507L143.619 96.8831C143.702 96.7413 143.752 96.5745 143.752 96.391C143.752 96.2409 143.719 96.0991 143.652 95.974L166.902 74.5369C166.961 74.5703 167.027 74.6037 167.094 74.6203V122.457C167.052 122.474 167.011 122.482 166.969 122.507H166.986ZM166.911 72.8437L146.645 54.1843C146.703 54.0592 146.745 53.9174 146.745 53.7672C146.745 53.592 146.695 53.4336 146.62 53.2918L166.969 31.7213C167.011 31.7463 167.061 31.763 167.111 31.7797V72.7602C167.044 72.7853 166.977 72.8103 166.911 72.8437ZM107.722 52.2741C107.772 52.2825 107.831 52.2908 107.889 52.2908C107.997 52.2908 108.098 52.2658 108.189 52.2408L128.455 80.9597C128.455 80.9597 128.405 81.0264 128.388 81.0598L97.3103 73.8446C97.2936 73.6027 97.1852 73.3775 97.0268 73.219L107.722 52.2825V52.2741ZM93.5672 115.543C93.7006 115.442 93.809 115.309 93.8757 115.15L118.543 118.012C118.576 118.187 118.66 118.345 118.776 118.479L103.754 143.427C103.679 143.411 103.604 143.394 103.529 143.394C103.513 143.394 103.504 143.394 103.496 143.394L93.5672 115.543ZM123.178 164.773C123.178 164.723 123.195 164.681 123.195 164.631C123.195 164.481 123.161 164.339 123.103 164.214L143.402 145.688C143.469 145.721 143.535 145.755 143.602 145.78V174.081C143.435 174.131 143.294 174.223 143.177 174.348L123.186 164.773H123.178ZM144.594 174.34C144.477 174.223 144.336 174.131 144.177 174.081V145.78C144.269 145.746 144.361 145.713 144.436 145.654L166.477 163.054C166.435 163.163 166.41 163.28 166.41 163.405C166.41 163.455 166.41 163.505 166.427 163.555L144.594 174.34Z" fill="white"></path>
  </g>
  <defs>
    <clipPath id="clip0_6_206">
      <rect width="160" height="158" fill="white" transform="translate(92 18)"></rect>
    </clipPath>
  </defs>
</svg>
